<svg xmlns="http://www.w3.org/2000/svg" xmlns:xlink="http://www.w3.org/1999/xlink" width="80" zoomAndPan="magnify" viewBox="0 0 60 60" height="80" preserveAspectRatio="xMidYMid meet" version="1.0"><defs><clipPath id="aab6358784"><path d="M 1.53125 1.53125 L 58.46875 1.53125 L 58.46875 58.46875 L 1.53125 58.46875 Z M 1.53125 1.53125 " clip-rule="nonzero"/></clipPath><clipPath id="a9dc9cdfbf"><path d="M 30 1.53125 C 14.277344 1.53125 1.53125 14.277344 1.53125 30 C 1.53125 45.722656 14.277344 58.46875 30 58.46875 C 45.722656 58.46875 58.46875 45.722656 58.46875 30 C 58.46875 14.277344 45.722656 1.53125 30 1.53125 " clip-rule="nonzero"/></clipPath><clipPath id="53152c01f0"><path d="M 13.535156 34 L 29 34 L 29 46 L 13.535156 46 Z M 13.535156 34 " clip-rule="nonzero"/></clipPath><clipPath id="f865a29e87"><path d="M 15 8.097656 L 20 8.097656 L 20 17 L 15 17 Z M 15 8.097656 " clip-rule="nonzero"/></clipPath><clipPath id="32566c0e5c"><path d="M 31 36 L 38 36 L 38 48.597656 L 31 48.597656 Z M 31 36 " clip-rule="nonzero"/></clipPath></defs><g clip-path="url(#aab6358784)"><g clip-path="url(#a9dc9cdfbf)"><path fill="#5e17eb" d="M 1.53125 1.53125 L 58.46875 1.53125 L 58.46875 58.46875 L 1.53125 58.46875 Z M 1.53125 1.53125 " fill-opacity="1" fill-rule="nonzero"/></g></g><g clip-path="url(#53152c01f0)"><path fill="#ffffff" d="M 18.8125 45.503906 L 13.566406 45.503906 L 13.566406 44.625 L 18.257812 44.625 L 21.671875 37.734375 L 24.664062 39.285156 L 27.507812 34.3125 L 28.28125 34.742188 L 25.011719 40.453125 L 22.070312 38.929688 Z M 18.8125 45.503906 " fill-opacity="1" fill-rule="nonzero"/></g><g clip-path="url(#f865a29e87)"><path fill="#ffffff" d="M 19.839844 16.054688 L 19.015625 15.835938 C 19.015625 14.359375 18.722656 10.335938 17.316406 9.480469 C 16.949219 9.261719 16.515625 9.285156 15.980469 9.558594 L 15.585938 8.777344 C 16.894531 8.105469 17.765625 8.597656 18.269531 9.125 C 18.972656 9.863281 19.460938 11.226562 19.722656 13.175781 C 19.726562 13.207031 20.027344 15.761719 19.839844 16.054688 Z M 19.839844 16.054688 " fill-opacity="1" fill-rule="nonzero"/></g><path fill="#ffffff" d="M 24.789062 17.175781 L 23.964844 16.957031 C 23.964844 15.421875 23.667969 11.257812 22.234375 10.398438 C 21.878906 10.179688 21.453125 10.207031 20.9375 10.472656 L 20.527344 9.695312 C 21.820312 9.035156 22.683594 9.515625 23.191406 10.042969 C 23.90625 10.796875 24.402344 12.199219 24.671875 14.207031 C 24.664062 14.230469 24.972656 16.878906 24.789062 17.175781 Z M 24.789062 17.175781 " fill-opacity="1" fill-rule="nonzero"/><path fill="#ffffff" d="M 31.753906 28.074219 C 30.796875 28.0625 29.949219 28.351562 29.207031 28.953125 C 29.105469 29.054688 29 29.15625 28.890625 29.25 C 28.285156 29.902344 27.984375 30.667969 27.992188 31.550781 C 27.992188 33.464844 29.679688 35.023438 31.753906 35.023438 C 33.828125 35.023438 35.515625 33.464844 35.515625 31.550781 C 35.515625 29.636719 33.828125 28.074219 31.753906 28.074219 Z M 31.753906 28.074219 " fill-opacity="1" fill-rule="nonzero"/><path fill="#ffffff" d="M 28.65625 28.257812 C 28.886719 28.015625 29.097656 27.757812 29.285156 27.484375 C 30.960938 25.035156 30.5625 21.871094 28.398438 20.429688 C 28.375 20.414062 28.351562 20.394531 28.332031 20.375 C 27.949219 20 24.824219 18.417969 21.714844 17.703125 C 20.851562 17.496094 19.976562 17.382812 19.085938 17.367188 C 16.558594 17.367188 16.355469 18.683594 16.289062 19.121094 C 15.6875 23.054688 20.164062 27.414062 21.550781 28.65625 L 21.582031 28.683594 C 21.804688 28.925781 22.050781 29.136719 22.324219 29.320312 C 23.050781 29.796875 23.851562 30.03125 24.726562 30.019531 C 26.054688 29.996094 27.214844 29.542969 28.207031 28.671875 C 28.347656 28.523438 28.496094 28.386719 28.65625 28.257812 Z M 27.074219 24.113281 C 27.039062 24.125 27.003906 24.128906 26.964844 24.128906 C 26.734375 24.128906 26.59375 24.019531 26.535156 23.800781 L 26.164062 22.367188 C 26.132812 22.25 26.148438 22.140625 26.210938 22.035156 C 26.273438 21.929688 26.363281 21.863281 26.484375 21.832031 C 26.601562 21.800781 26.714844 21.816406 26.820312 21.878906 C 26.925781 21.941406 26.996094 22.03125 27.023438 22.148438 L 27.394531 23.582031 C 27.425781 23.699219 27.410156 23.808594 27.347656 23.914062 C 27.285156 24.019531 27.191406 24.085938 27.074219 24.113281 Z M 27.074219 24.113281 " fill-opacity="1" fill-rule="nonzero"/><path fill="#ffffff" d="M 42.753906 31.988281 C 38.0625 31.988281 34.527344 33.8125 34.527344 36.230469 C 34.527344 38.53125 38.300781 40.476562 42.753906 40.476562 C 47.207031 40.476562 50.984375 38.53125 50.984375 36.230469 C 50.984375 33.933594 47.214844 31.988281 42.753906 31.988281 Z M 42.753906 31.988281 " fill-opacity="1" fill-rule="nonzero"/><path fill="#ffffff" d="M 50.363281 45.265625 L 45.84375 45.265625 C 45.648438 45.265625 45.511719 45.179688 45.433594 45.003906 L 41.214844 35.453125 L 36.972656 38.652344 L 36.429688 37.953125 L 41.125 34.417969 C 41.242188 34.332031 41.367188 34.304688 41.507812 34.339844 C 41.648438 34.375 41.746094 34.460938 41.804688 34.589844 L 46.136719 44.390625 L 50.367188 44.390625 Z M 50.363281 45.265625 " fill-opacity="1" fill-rule="nonzero"/><g clip-path="url(#32566c0e5c)"><path fill="#ffffff" d="M 37.824219 48.601562 L 35.007812 48.601562 C 34.785156 48.601562 34.640625 48.492188 34.582031 48.277344 L 31.324219 36.5625 L 32.179688 36.332031 L 35.347656 47.726562 L 37.824219 47.726562 Z M 37.824219 48.601562 " fill-opacity="1" fill-rule="nonzero"/></g></svg>